<svg width="26" height="26" viewBox="0 0 26 26" fill="none" xmlns="http://www.w3.org/2000/svg">
<g id="&#240;&#159;&#166;&#134; icon &#34;globe&#34;">
<path id="Vector" d="M13 25C19.6274 25 25 19.6274 25 13C25 6.37258 19.6274 1 13 1C6.37258 1 1 6.37258 1 13C1 19.6274 6.37258 25 13 25Z" stroke="white" stroke-width="0.62" stroke-linecap="round" stroke-linejoin="round"/>
<path id="Vector_2" d="M1.59985 13.6L8.19985 16L6.99985 20.2L8.19985 23.8" stroke="white" stroke-width="0.62" stroke-linecap="round" stroke-linejoin="round"/>
<path id="Vector_3" d="M18.9999 23.2L18.3999 20.2L15.3999 19V14.8L18.9999 13.6L24.3999 14.2" stroke="white" stroke-width="0.62" stroke-linecap="round" stroke-linejoin="round"/>
<path id="Vector_4" d="M21.4001 5.20001L20.8001 7.00001L16.6001 7.60001V11.2L19.6001 10H22.0001L24.4001 11.2" stroke="white" stroke-width="0.62" stroke-linecap="round" stroke-linejoin="round"/>
<path id="Vector_5" d="M1.59985 11.2L4.59985 8.79995L7.59985 8.19995L9.99985 4.59995L8.79985 2.19995" stroke="white" stroke-width="0.62" stroke-linecap="round" stroke-linejoin="round"/>
</g>
</svg>
